<svg width="171" height="151" viewBox="0 0 171 151" fill="none" xmlns="http://www.w3.org/2000/svg">
<g clip-path="url(#clip0_29_1621)">
<path d="M85.5037 0C73.8327 0 62.6457 4.65667 54.3883 12.8883C46.1567 21.142 41.5 32.329 41.5 44C41.5 55.671 46.1567 66.8617 54.3847 75.086C62.3377 83.0647 73.345 88 85.5037 88C97.6623 88 108.666 83.061 116.623 75.0823C124.876 66.858 129.5 55.6673 129.5 44C129.5 32.3327 124.876 21.142 116.619 12.8883H116.623C108.655 4.93167 97.655 0.00733333 85.5037 0ZM99.5653 81.2313C75.2993 90.0057 57.7617 73.8467 54.0253 68.2073C54.0473 68.156 54.0473 68.1083 54.0473 68.0643C57.4207 53.8047 61.5933 36.7693 68.2923 31.7277C71.794 25.6593 72.806 16.6467 79.0833 11.924C80.6673 16.6467 83.1423 26.4367 84.84 31.1593C92.265 38.588 103.496 47.828 111.046 51.656C111.823 52.096 112.839 55.253 112.839 55.253L109.814 59.059L77.4113 55.8067C76.678 55.7333 75.9667 55.704 75.2333 55.704C73.147 55.704 71.0167 55.9717 68.5123 56.364C70.0963 52.437 73.4623 49.2653 73.4623 49.2653C73.4623 49.2653 70.3273 47.3623 67.944 47.047C68.6297 45.463 70.441 43.4207 70.8737 42.8743C69.9827 43.1933 63.4487 46.1303 62.7813 48.6053C65.9237 49.39 68.1677 50.391 68.1677 50.391C68.1677 50.391 64.688 53.9 64.0207 59.9683C64.0207 59.9683 74.3643 58.388 82.134 59.4073C82.365 59.5173 82.4787 59.5173 82.5923 59.5173L86.633 59.631L99.602 81.213C99.5947 81.224 99.58 81.2313 99.5653 81.2313ZM85.5037 24.5337C88.5543 21.5967 88.9907 21.1603 91.924 18.3407C92.155 23.958 92.0377 26.895 91.693 33.7517C89.9953 32.0723 86.6293 29.9237 86.6293 29.9237C86.6293 29.9237 85.9657 26.0003 85.5037 24.5337ZM125.107 43.9963C125.107 54.923 120.689 64.8157 113.535 71.9877H113.532C111.467 74.0557 109.179 75.8963 106.701 77.4693L106.539 77.5647H106.517L92.9397 60.6467L104.2 61.8787C104.2 61.8787 109.594 62.4323 110.829 61.8787C111.959 61.4497 118.027 52.899 118.027 52.899C118.027 52.899 100.574 41.866 94.6153 35.7903C95.3047 25.5457 93.8343 11.924 93.8343 12.034C89.46 16.4157 88.8843 17.105 84.5027 21.1603C82.596 14.971 81.683 12.8407 79.7763 6.64767C74.0233 11.374 69.6417 19.349 66.4957 28.7063C65.843 29.4287 65.183 30.2097 64.5487 31.0163L64.4753 31.1117C64.0647 31.6873 63.632 32.2557 63.214 32.8533C62.367 34.0487 61.564 35.3283 60.783 36.6373C60.233 37.5797 59.6867 38.544 59.177 39.5267C58.946 39.9373 58.7187 40.3737 58.4877 40.81C55.14 47.366 52.3423 54.703 49.9077 61.358C47.385 56.2833 45.9073 50.314 45.9073 44C45.9073 33.5023 50.08 23.4153 57.5123 15.9867C64.941 8.558 75.0023 4.40367 85.5037 4.40367C85.5147 4.40367 85.5293 4.40367 85.544 4.40367C96.4743 4.40367 106.367 8.82933 113.535 15.983C120.685 23.1623 125.104 33.0623 125.107 43.9963Z" fill="white"/>
<path d="M89.7973 46.8197C91.8103 46.244 92.0413 46.1303 94.0653 45.584C91.4657 43.6553 88.646 41.635 84.8437 42.1887C84.499 43.197 84.1543 44 83.9453 45.122C85.7383 44.8873 87.6377 45.584 89.7973 46.8197Z" fill="white"/>
</g>
<path d="M2.16 110.56C2.16 109.2 2.38667 108.04 2.84 107.08C3.32 106.093 3.96 105.293 4.76 104.68C5.56 104.04 6.49333 103.573 7.56 103.28C8.65333 102.987 9.81333 102.84 11.04 102.84C13.0133 102.84 14.4667 103.107 15.4 103.64C16.3333 104.147 16.8 105.027 16.8 106.28C16.8 106.813 16.68 107.293 16.44 107.72C16.2267 108.147 15.9867 108.467 15.72 108.68C15.2133 108.547 14.68 108.44 14.12 108.36C13.5867 108.253 12.96 108.2 12.24 108.2C11.0933 108.2 10.2 108.4 9.56 108.8C8.92 109.173 8.6 109.84 8.6 110.8V112.08H15.16C15.32 112.373 15.4667 112.747 15.6 113.2C15.76 113.627 15.84 114.107 15.84 114.64C15.84 115.573 15.6267 116.253 15.2 116.68C14.8 117.08 14.2533 117.28 13.56 117.28H8.96V129.96C8.69333 130.04 8.26667 130.12 7.68 130.2C7.12 130.28 6.53333 130.32 5.92 130.32C5.33333 130.32 4.8 130.28 4.32 130.2C3.86667 130.12 3.48 129.96 3.16 129.72C2.84 129.48 2.58667 129.16 2.4 128.76C2.24 128.333 2.16 127.787 2.16 127.12V110.56ZM38.4891 120.28C38.4891 121.933 38.2357 123.413 37.7291 124.72C37.2224 126 36.5024 127.08 35.5691 127.96C34.6624 128.84 33.5691 129.507 32.2891 129.96C31.0091 130.413 29.5824 130.64 28.0091 130.64C26.4357 130.64 25.0091 130.4 23.7291 129.92C22.4491 129.44 21.3424 128.76 20.4091 127.88C19.5024 126.973 18.7957 125.88 18.2891 124.6C17.7824 123.32 17.5291 121.88 17.5291 120.28C17.5291 118.707 17.7824 117.28 18.2891 116C18.7957 114.72 19.5024 113.64 20.4091 112.76C21.3424 111.853 22.4491 111.16 23.7291 110.68C25.0091 110.2 26.4357 109.96 28.0091 109.96C29.5824 109.96 31.0091 110.213 32.2891 110.72C33.5691 111.2 34.6624 111.893 35.5691 112.8C36.5024 113.68 37.2224 114.76 37.7291 116.04C38.2357 117.32 38.4891 118.733 38.4891 120.28ZM24.4891 120.28C24.4891 121.907 24.7957 123.16 25.4091 124.04C26.0491 124.893 26.9291 125.32 28.0491 125.32C29.1691 125.32 30.0224 124.88 30.6091 124C31.2224 123.12 31.5291 121.88 31.5291 120.28C31.5291 118.68 31.2224 117.453 30.6091 116.6C29.9957 115.72 29.1291 115.28 28.0091 115.28C26.8891 115.28 26.0224 115.72 25.4091 116.6C24.7957 117.453 24.4891 118.68 24.4891 120.28ZM61.9266 120.28C61.9266 121.933 61.6732 123.413 61.1666 124.72C60.6599 126 59.9399 127.08 59.0066 127.96C58.0999 128.84 57.0066 129.507 55.7266 129.96C54.4466 130.413 53.0199 130.64 51.4466 130.64C49.8732 130.64 48.4466 130.4 47.1666 129.92C45.8866 129.44 44.7799 128.76 43.8466 127.88C42.9399 126.973 42.2332 125.88 41.7266 124.6C41.2199 123.32 40.9666 121.88 40.9666 120.28C40.9666 118.707 41.2199 117.28 41.7266 116C42.2332 114.72 42.9399 113.64 43.8466 112.76C44.7799 111.853 45.8866 111.16 47.1666 110.68C48.4466 110.2 49.8732 109.96 51.4466 109.96C53.0199 109.96 54.4466 110.213 55.7266 110.72C57.0066 111.2 58.0999 111.893 59.0066 112.8C59.9399 113.68 60.6599 114.76 61.1666 116.04C61.6732 117.32 61.9266 118.733 61.9266 120.28ZM47.9266 120.28C47.9266 121.907 48.2332 123.16 48.8466 124.04C49.4866 124.893 50.3666 125.32 51.4866 125.32C52.6066 125.32 53.4599 124.88 54.0466 124C54.6599 123.12 54.9666 121.88 54.9666 120.28C54.9666 118.68 54.6599 117.453 54.0466 116.6C53.4332 115.72 52.5666 115.28 51.4466 115.28C50.3266 115.28 49.4599 115.72 48.8466 116.6C48.2332 117.453 47.9266 118.68 47.9266 120.28ZM64.4041 120.28C64.4041 118.52 64.6707 117 65.2041 115.72C65.7374 114.413 66.4707 113.333 67.4041 112.48C68.3641 111.627 69.4707 111 70.7241 110.6C72.0041 110.173 73.3774 109.96 74.8441 109.96C75.3774 109.96 75.8974 110.013 76.4041 110.12C76.9107 110.2 77.3241 110.307 77.6441 110.44V103.96C77.9107 103.88 78.3374 103.8 78.9241 103.72C79.5107 103.613 80.1107 103.56 80.7241 103.56C81.3107 103.56 81.8307 103.6 82.2841 103.68C82.7641 103.76 83.1641 103.92 83.4841 104.16C83.8041 104.4 84.0441 104.733 84.2041 105.16C84.3641 105.56 84.4441 106.093 84.4441 106.76V125.72C84.4441 126.973 83.8574 127.973 82.6841 128.72C81.9107 129.227 80.9107 129.667 79.6841 130.04C78.4574 130.44 77.0441 130.64 75.4441 130.64C73.7107 130.64 72.1507 130.4 70.7641 129.92C69.4041 129.44 68.2441 128.747 67.2841 127.84C66.3507 126.933 65.6307 125.853 65.1241 124.6C64.6441 123.32 64.4041 121.88 64.4041 120.28ZM75.7641 115.28C74.3241 115.28 73.2174 115.693 72.4441 116.52C71.6707 117.347 71.2841 118.6 71.2841 120.28C71.2841 121.933 71.6441 123.187 72.3641 124.04C73.0841 124.867 74.1241 125.28 75.4841 125.28C75.9641 125.28 76.3907 125.213 76.7641 125.08C77.1641 124.92 77.4707 124.747 77.6841 124.56V115.76C77.1507 115.44 76.5107 115.28 75.7641 115.28ZM99.7616 129.4C99.3882 129.72 98.8816 129.973 98.2416 130.16C97.6016 130.373 96.8416 130.48 95.9616 130.48C94.8682 130.48 93.9216 130.32 93.1216 130C92.3216 129.707 91.7882 129.28 91.5216 128.72C91.2282 128.08 90.8816 127.067 90.4816 125.68C90.1082 124.293 89.7349 122.773 89.3616 121.12C88.9882 119.467 88.6282 117.787 88.2816 116.08C87.9616 114.373 87.7082 112.867 87.5216 111.56C87.8949 111.187 88.3882 110.867 89.0016 110.6C89.6416 110.307 90.3349 110.16 91.0816 110.16C92.0149 110.16 92.7749 110.373 93.3616 110.8C93.9749 111.2 94.3482 111.907 94.4816 112.92C94.7482 114.947 94.9749 116.627 95.1616 117.96C95.3482 119.267 95.4949 120.347 95.6016 121.2C95.7349 122.027 95.8282 122.667 95.8816 123.12C95.9616 123.547 96.0282 123.893 96.0816 124.16H96.2416C96.3216 123.733 96.4549 123.12 96.6416 122.32C96.8549 121.493 97.0949 120.56 97.3616 119.52C97.6282 118.48 97.9082 117.36 98.2016 116.16C98.4949 114.933 98.7882 113.72 99.0816 112.52C99.6149 112.227 100.135 112 100.642 111.84C101.175 111.68 101.828 111.6 102.602 111.6C103.535 111.6 104.335 111.747 105.002 112.04C105.668 112.333 106.095 112.787 106.282 113.4C106.602 114.573 106.908 115.72 107.202 116.84C107.495 117.933 107.762 118.96 108.002 119.92C108.242 120.853 108.455 121.693 108.642 122.44C108.828 123.16 108.962 123.733 109.042 124.16H109.242C109.535 122.107 109.815 119.973 110.082 117.76C110.375 115.547 110.642 113.293 110.882 111C111.362 110.707 111.868 110.493 112.402 110.36C112.935 110.227 113.468 110.16 114.002 110.16C114.935 110.16 115.708 110.36 116.322 110.76C116.935 111.16 117.242 111.853 117.242 112.84C117.242 113.267 117.175 113.907 117.042 114.76C116.908 115.613 116.735 116.573 116.522 117.64C116.308 118.707 116.055 119.827 115.762 121C115.495 122.173 115.215 123.307 114.922 124.4C114.655 125.493 114.388 126.48 114.122 127.36C113.882 128.24 113.668 128.92 113.482 129.4C113.108 129.72 112.535 129.973 111.762 130.16C110.988 130.373 110.162 130.48 109.282 130.48C107.042 130.48 105.722 129.92 105.322 128.8C105.162 128.32 104.962 127.72 104.722 127C104.482 126.253 104.228 125.44 103.962 124.56C103.695 123.68 103.442 122.773 103.202 121.84C102.962 120.88 102.762 119.96 102.602 119.08C102.415 120.013 102.188 120.987 101.922 122C101.655 122.987 101.375 123.96 101.082 124.92C100.815 125.853 100.562 126.72 100.322 127.52C100.082 128.293 99.8949 128.92 99.7616 129.4ZM140.442 120.28C140.442 121.933 140.189 123.413 139.682 124.72C139.176 126 138.456 127.08 137.522 127.96C136.616 128.84 135.522 129.507 134.242 129.96C132.962 130.413 131.536 130.64 129.962 130.64C128.389 130.64 126.962 130.4 125.682 129.92C124.402 129.44 123.296 128.76 122.362 127.88C121.456 126.973 120.749 125.88 120.242 124.6C119.736 123.32 119.482 121.88 119.482 120.28C119.482 118.707 119.736 117.28 120.242 116C120.749 114.72 121.456 113.64 122.362 112.76C123.296 111.853 124.402 111.16 125.682 110.68C126.962 110.2 128.389 109.96 129.962 109.96C131.536 109.96 132.962 110.213 134.242 110.72C135.522 111.2 136.616 111.893 137.522 112.8C138.456 113.68 139.176 114.76 139.682 116.04C140.189 117.32 140.442 118.733 140.442 120.28ZM126.442 120.28C126.442 121.907 126.749 123.16 127.362 124.04C128.002 124.893 128.882 125.32 130.002 125.32C131.122 125.32 131.976 124.88 132.562 124C133.176 123.12 133.482 121.88 133.482 120.28C133.482 118.68 133.176 117.453 132.562 116.6C131.949 115.72 131.082 115.28 129.962 115.28C128.842 115.28 127.976 115.72 127.362 116.6C126.749 117.453 126.442 118.68 126.442 120.28ZM150.68 129.96C150.386 130.013 149.946 130.08 149.36 130.16C148.8 130.267 148.226 130.32 147.64 130.32C147.053 130.32 146.52 130.28 146.04 130.2C145.586 130.12 145.2 129.96 144.88 129.72C144.56 129.48 144.306 129.16 144.12 128.76C143.96 128.333 143.88 127.787 143.88 127.12V103.92C144.173 103.867 144.6 103.8 145.16 103.72C145.746 103.613 146.333 103.56 146.92 103.56C147.506 103.56 148.026 103.6 148.48 103.68C148.96 103.76 149.36 103.92 149.68 104.16C150 104.4 150.24 104.733 150.4 105.16C150.586 105.56 150.68 106.093 150.68 106.76V129.96ZM155.051 110.56C155.051 109.2 155.277 108.04 155.731 107.08C156.211 106.093 156.851 105.293 157.651 104.68C158.451 104.04 159.384 103.573 160.451 103.28C161.544 102.987 162.704 102.84 163.931 102.84C165.904 102.84 167.357 103.107 168.291 103.64C169.224 104.147 169.691 105.027 169.691 106.28C169.691 106.813 169.571 107.293 169.331 107.72C169.117 108.147 168.877 108.467 168.611 108.68C168.104 108.547 167.571 108.44 167.011 108.36C166.477 108.253 165.851 108.2 165.131 108.2C163.984 108.2 163.091 108.4 162.451 108.8C161.811 109.173 161.491 109.84 161.491 110.8V112.08H168.051C168.211 112.373 168.357 112.747 168.491 113.2C168.651 113.627 168.731 114.107 168.731 114.64C168.731 115.573 168.517 116.253 168.091 116.68C167.691 117.08 167.144 117.28 166.451 117.28H161.851V129.96C161.584 130.04 161.157 130.12 160.571 130.2C160.011 130.28 159.424 130.32 158.811 130.32C158.224 130.32 157.691 130.28 157.211 130.2C156.757 130.12 156.371 129.96 156.051 129.72C155.731 129.48 155.477 129.16 155.291 128.76C155.131 128.333 155.051 127.787 155.051 127.12V110.56Z" fill="white"/>
<defs>
<clipPath id="clip0_29_1621">
<rect width="88" height="88" fill="white" transform="translate(41.5)"/>
</clipPath>
</defs>
</svg>
