<svg width="46" height="30" viewBox="0 0 46 30" fill="none" xmlns="http://www.w3.org/2000/svg">
<path d="M4.6 1.15H32.2C34.1047 1.15 35.65 2.69531 35.65 4.6V6.9C36.0381 6.9 36.4191 6.91438 36.8 6.95031V4.6C36.8 2.06281 34.7372 0 32.2 0H4.6C2.06281 0 0 2.06281 0 4.6V23C0 25.5372 2.06281 27.6 4.6 27.6H25.8894C25.5875 27.2334 25.3072 26.8525 25.0412 26.45H4.6C2.69531 26.45 1.15 24.9047 1.15 23V8.10031L15.1512 19.3919C17.0487 20.9228 19.7513 20.9228 21.6488 19.3919L23.0647 18.2491C23.1222 17.6669 23.2228 17.0919 23.3594 16.5313L20.9228 18.4934C19.4494 19.6794 17.3434 19.6794 15.87 18.4934L1.15 6.62688V4.6C1.15 2.69531 2.69531 1.15 4.6 1.15ZM35.65 10.35C38.09 10.35 40.43 11.3193 42.1554 13.0446C43.8807 14.77 44.85 17.11 44.85 19.55C44.85 21.99 43.8807 24.3301 42.1554 26.0554C40.43 27.7807 38.09 28.75 35.65 28.75C33.21 28.75 30.87 27.7807 29.1446 26.0554C27.4193 24.3301 26.45 21.99 26.45 19.55C26.45 17.11 27.4193 14.77 29.1446 13.0446C30.87 11.3193 33.21 10.35 35.65 10.35ZM35.65 29.9C37.0092 29.9 38.3551 29.6323 39.6108 29.1122C40.8665 28.592 42.0075 27.8296 42.9686 26.8686C43.9296 25.9075 44.692 24.7665 45.2122 23.5108C45.7323 22.2551 46 20.9092 46 19.55C46 18.1908 45.7323 16.8449 45.2122 15.5892C44.692 14.3335 43.9296 13.1925 42.9686 12.2314C42.0075 11.2704 40.8665 10.508 39.6108 9.98785C38.3551 9.46771 37.0092 9.2 35.65 9.2C34.2908 9.2 32.9449 9.46771 31.6892 9.98785C30.4335 10.508 29.2925 11.2704 28.3314 12.2314C27.3704 13.1925 26.608 14.3335 26.0878 15.5892C25.5677 16.8449 25.3 18.1908 25.3 19.55C25.3 20.9092 25.5677 22.2551 26.0878 23.5108C26.608 24.7665 27.3704 25.9075 28.3314 26.8686C29.2925 27.8296 30.4335 28.592 31.6892 29.1122C32.9449 29.6323 34.2908 29.9 35.65 29.9ZM40.6597 16.2653C40.4369 16.0425 40.0703 16.0425 39.8475 16.2653L34.5 21.6128L31.4597 18.5725C31.2369 18.3497 30.8703 18.3497 30.6475 18.5725C30.4247 18.7953 30.4247 19.1619 30.6475 19.3847L34.0975 22.8347C34.3203 23.0575 34.6869 23.0575 34.9097 22.8347L40.6597 17.0847C40.8825 16.8619 40.8825 16.4953 40.6597 16.2725V16.2653Z" fill="black"/>
</svg>
